<svg id="Layer_1" data-name="Layer 1" xmlns="http://www.w3.org/2000/svg" viewBox="0 0 176.23 40"><defs><style>.cls-1{fill:#0e314d;}.cls-2{fill:#c679e3;}.cls-3{fill:#44ce6f;}</style></defs><title>logo_web</title><path class="cls-1" d="M23.84,12.76A18.38,18.38,0,0,1,27,9a27,27,0,0,1,4-2.93,39.49,39.49,0,0,1,9.17-3.9C41.83,1.7,43.45,1.32,45.1,1s3.3-.55,5-.72A52,52,0,0,1,60.21.22,32.23,32.23,0,0,1,70.39,2.78a19.64,19.64,0,0,1,4.76,3,14.55,14.55,0,0,1,3.65,4.82,14.22,14.22,0,0,1,1,3A13.3,13.3,0,0,1,80,15.13a11,11,0,0,1,0,1.72,12.78,12.78,0,0,1-.65,3.22,18.8,18.8,0,0,1-1.2,2.77c-.23.42-.47.84-.71,1.24l-.37.59c-.13.2-.25.39-.4.6-.56.81-1.07,1.48-1.6,2.16-1.06,1.35-2.1,2.63-3.2,3.93L66.17,26c1.12-1.09,2.27-2.24,3.35-3.36.53-.56,1.07-1.14,1.49-1.63l.32-.4.33-.41c.21-.28.4-.56.59-.84a8.65,8.65,0,0,0,1.43-3.16,3.61,3.61,0,0,0,.08-.72,6.78,6.78,0,0,0,0-.9,7.74,7.74,0,0,0-.36-1.72,8.75,8.75,0,0,0-1.94-3.15,14.21,14.21,0,0,0-3.27-2.54,28.23,28.23,0,0,0-8.51-3,48.24,48.24,0,0,0-9.41-.85,54.45,54.45,0,0,0-9.53.84A38.21,38.21,0,0,0,31.53,7,20.61,20.61,0,0,0,23.84,12.76Z"/><path class="cls-2" d="M0,12.89A3.8,3.8,0,0,1,3.76,9.13a3.77,3.77,0,1,1,0,7.53A3.81,3.81,0,0,1,0,12.89Z"/><rect class="cls-3" x="0.63" y="18.5" width="6.28" height="20.92"/><path class="cls-3" d="M34,29c0,6.23-4.52,11-10,11a7.85,7.85,0,0,1-6.23-2.55v2H11.5V10.13h6.28V20.46A7.85,7.85,0,0,1,24,17.91C29.49,17.91,34,22.72,34,29Zm-6.27,0a4.79,4.79,0,0,0-5-5.11,4.78,4.78,0,0,0-5,5.11,4.78,4.78,0,0,0,5,5.1A4.78,4.78,0,0,0,27.74,29Z"/><path class="cls-3" d="M48.19,34.39a5.47,5.47,0,0,0,4-1.59l5,2.89c-2,2.85-5.15,4.31-9.12,4.31C41,40,36.52,35.19,36.52,29a10.73,10.73,0,0,1,11.13-11c6.11,0,10.62,4.73,10.62,11.05A12.07,12.07,0,0,1,58,31.47H43.17C44,33.64,45.89,34.39,48.19,34.39ZM52,26.78a4.3,4.3,0,0,0-4.43-3.3,4.31,4.31,0,0,0-4.56,3.3Z"/><path class="cls-3" d="M73.25,39.41l-3.89-5.52-3.89,5.52h-7.2l7.49-10.62L58.53,18.5h7.19l3.64,5.18L73,28.79l7.49,10.62Z"/><path class="cls-1" d="M97.77,33.93c0,3.43-3,5.94-7.49,5.94-4.19,0-7-2-8-4.64l1.8-1c.75,2.26,3,3.69,6.15,3.69,2.93,0,5.39-1.3,5.39-3.94C95.67,28.24,83,31.51,83,24,83,20.67,85.84,18,90.11,18c3.39,0,6,1.63,7.11,4.18l-1.76,1A5.46,5.46,0,0,0,90.11,20c-2.72,0-5,1.43-5,3.94C85.09,29.58,97.77,26.28,97.77,33.93Z"/><path class="cls-1" d="M104.79,20.55V34.14c0,3.68,2,3.77,6.23,3.39v1.88c-5.48.84-8.36-.5-8.36-5.27V20.55H98.05V18.5h4.61V13.27l2.13-.63V18.5H111v2.05Z"/><path class="cls-1" d="M133.65,18.5V39.41h-2.13V34.69a10.07,10.07,0,0,1-9,5.18,10.92,10.92,0,0,1,0-21.83,10.07,10.07,0,0,1,9,5.18V18.5ZM131.52,29a8.85,8.85,0,1,0-8.83,8.91A8.78,8.78,0,0,0,131.52,29Z"/><path class="cls-1" d="M137,29A10.71,10.71,0,0,1,148,18a9.8,9.8,0,0,1,9.12,5.35l-1.72,1A8,8,0,0,0,148,20,8.75,8.75,0,0,0,139.13,29,8.75,8.75,0,0,0,148,37.87a8.37,8.37,0,0,0,7.53-4.35l1.75,1A10.26,10.26,0,0,1,148,39.87,10.71,10.71,0,0,1,137,29Z"/><path class="cls-1" d="M173.39,39.41,162.3,29.12V39.41h-2.09V10.13h2.09V28l10.58-9.49h2.93l-11.25,10,11.67,10.87Z"/></svg>